<?xml version="1.0" encoding="UTF-8" standalone="no"?>
<svg
   xmlns:dc="http://purl.org/dc/elements/1.1/"
   xmlns:cc="http://creativecommons.org/ns#"
   xmlns:rdf="http://www.w3.org/1999/02/22-rdf-syntax-ns#"
   xmlns:svg="http://www.w3.org/2000/svg"
   xmlns="http://www.w3.org/2000/svg"
   xmlns:sodipodi="http://sodipodi.sourceforge.net/DTD/sodipodi-0.dtd"
   xmlns:inkscape="http://www.inkscape.org/namespaces/inkscape"
   width="1890"
   height="1417"
   viewBox="0 0 1890 1417"
   id="svg2"
   version="1.1"
   inkscape:version="0.91 r13725"
   sodipodi:docname="arriere_path.svg">
  <metadata
     id="metadata8">
    <rdf:RDF>
      <cc:Work
         rdf:about="">
        <dc:format>image/svg+xml</dc:format>
        <dc:type
           rdf:resource="http://purl.org/dc/dcmitype/StillImage" />
      </cc:Work>
    </rdf:RDF>
  </metadata>
  <defs
     id="defs6" />
  <sodipodi:namedview
     pagecolor="#ffffff"
     bordercolor="#666666"
     borderopacity="1"
     objecttolerance="10"
     gridtolerance="10"
     guidetolerance="10"
     inkscape:pageopacity="0"
     inkscape:pageshadow="2"
     inkscape:window-width="640"
     inkscape:window-height="480"
     id="namedview4"
     showgrid="false"
     inkscape:zoom="0.16654905"
     inkscape:cx="945"
     inkscape:cy="708.5"
     inkscape:window-x="179"
     inkscape:window-y="73"
     inkscape:window-maximized="0"
     inkscape:current-layer="svg2" />
  <path
     id="path3336"
     d="m 586.5,1146.343 c -76.76884,-11.996 -123.09517,-86.9845 -98.92221,-160.12539 9.79282,-29.63043 32.41667,-55.44458 61.42221,-70.08364 8.45843,-4.26896 22.07647,-8.82273 32.5,-10.86776 9.09435,-1.78426 33.90565,-1.78426 43,0 25.02671,4.91008 46.45422,16.16484 64.02047,33.62664 17.87571,17.76941 28.40988,37.06395 34.12292,62.49995 2.33931,10.4153 2.33931,37.5848 0,48 -5.70856,25.4162 -16.2076,44.6555 -34.13127,62.545 -16.90923,16.8769 -37.27371,27.8112 -61.51212,33.0274 -8.89727,1.9148 -32.02796,2.7017 -40.5,1.3778 z m 32.29216,-43.5343 C 655.39608,1095.2859 682,1062.7019 682,1025.3928 c 0,-43.40931 -35.59064,-78.99995 -79,-78.99995 -43.40936,0 -79,35.59064 -79,78.99995 0,37.1749 26.419,69.6557 63,77.4552 8.85531,1.888 22.49644,1.8712 31.79216,-0.039 z m -33.0195,-29.9708 c -16.28934,-3.9487 -27.09225,-14.0094 -31.99945,-29.801 -3.12282,-10.0493 -3.12608,-26.2285 -0.007,-36.2641 2.78621,-8.96545 8.94874,-18.27342 15.03483,-22.70881 18.17838,-13.24795 38.13886,-15.32774 56.73915,-5.91197 5.74105,2.90622 16.46011,11.5194 16.46011,13.22635 0,0.4401 -5.9625,5.84771 -13.25,12.01693 -14.45562,12.2373 -24.76469,21.7517 -24.72426,22.8184 0.0142,0.3735 8.78916,7.1334 19.5,15.0218 10.71085,7.8885 19.47426,14.9433 19.47426,15.6772 0,1.8358 -6.17158,6.76 -13.10249,10.4541 -12.1702,6.4866 -30.53952,8.7643 -44.12485,5.4711 z m 270.47734,-48.195 -122.25,-0.258 -0.006,-6.746 c -0.0304,-34.76289 -18.23886,-73.49022 -45.27041,-96.28491 -66.7336,-56.27395 -166.49722,-35.39902 -203.96101,42.6776 l -4.01192,8.36126 -35.37533,0 -35.37533,0 0,-2.36043 c 0,-1.29823 -0.27559,-4.37109 -0.61243,-6.82856 l -0.61242,-4.46814 6.86242,-1.68682 c 3.77434,-0.92775 10.19749,-3.26717 14.27368,-5.19872 50.56283,-23.95975 60.55134,-87.45933 19.83766,-126.11321 -5.26698,-5.00052 -7.08309,-7.59518 -9.67639,-13.82457 -6.05497,-14.54469 -7.39825,-21.44779 -7.39825,-38.01955 0,-16.51402 1.34764,-23.48535 7.30751,-37.8016 8.64647,-20.76974 28.05877,-40.3158 49.05561,-49.39361 23.15466,-10.01073 48.31598,-10.78919 71.15759,-2.20154 4.56776,1.71732 9.99898,3.74664 12.06937,4.50959 2.07039,0.76296 7.92039,4.64105 13,8.61797 5.07961,3.97692 27.87115,21.75192 50.64786,39.49998 l 41.41222,32.26921 162.83778,0 162.83779,0 0,41 0,41 172,0 172,0 0,87 0,86.99995 -184.25,-0.246 c -101.3375,-0.1352 -239.2625,-0.362 -306.5,-0.5039 z m 48.85212,-18.5399 c 2.75523,-1.8567 3.39788,-2.9367 3.39788,-5.7102 0,-2.77339 -0.64265,-3.85336 -3.39788,-5.71012 l -3.39789,-2.28983 -54.39973,0 -54.39974,0 -4.74272,-4.75 c -4.66415,-4.6713 -4.76308,-4.90335 -5.9714,-14.00618 C 772.9864,904.29682 720.22794,844.90447 652.22481,827.32882 608.63817,816.0637 562.56138,821.36593 524,842.08413 c -11.80241,6.34118 -24.69796,15.32865 -32.93042,22.95064 -11.49899,10.64631 -13.42877,15.62105 -8.22187,21.19505 5.95261,6.37229 11.27842,4.88073 24.65229,-6.9042 26.64049,-23.47536 55.74328,-36.10887 92.25,-40.04567 17.0416,-1.83772 37.55004,0.73406 58.25,7.30462 46.64357,14.80555 86.02775,54.57259 101.81851,102.80828 3.79558,11.5943 5.71212,20.17345 7.65199,34.25331 1.61074,11.69091 2.79131,14.76432 7.32748,19.07574 5.88637,5.5948 5.69801,5.5794 68.80414,5.6271 l 58.10211,0.044 3.39789,-2.2899 z M 1090.939,942.14285 c 13.4259,-28.1875 24.804,-52.04904 25.2847,-53.02564 0.8212,-1.66812 -0.073,-1.75895 -14.7718,-1.5 l -15.6459,0.27564 -24.903,52.46128 c -13.6967,28.85371 -24.903,52.59121 -24.903,52.75 0,0.1588 6.8689,0.28872 15.2642,0.28872 l 15.2642,0 24.4106,-51.25 z m 60.3379,6 c 11.3407,-24.8875 22.2064,-48.7375 24.146,-53 l 3.5266,-7.75 -15.2248,0.006 -15.2247,0.007 -23.7742,51.47491 c -13.0759,28.3112 -24.0365,52.15827 -24.357,52.99349 -0.5057,1.3177 1.4592,1.51859 14.8529,1.51859 l 15.4357,0 20.6195,-45.25 z m 64.3129,-7.63559 C 1226.8154,911.69519 1236,887.94534 1236,887.72981 c 0,-0.21553 -6.3642,-0.26702 -14.1427,-0.11442 l -14.1427,0.27746 -21.8661,51 c -12.0264,28.05 -22.1211,51.79881 -22.4327,52.77513 -0.5291,1.65783 0.5017,1.75695 15.5986,1.5 l 16.1651,-0.27513 20.4103,-52.38559 z"
     style="fill:#000000"
     inkscape:connector-curvature="0" />
</svg>
