<?xml version="1.0" encoding="UTF-8" standalone="no"?>
<svg
   xmlns:dc="http://purl.org/dc/elements/1.1/"
   xmlns:cc="http://creativecommons.org/ns#"
   xmlns:rdf="http://www.w3.org/1999/02/22-rdf-syntax-ns#"
   xmlns:svg="http://www.w3.org/2000/svg"
   xmlns="http://www.w3.org/2000/svg"
   xmlns:xlink="http://www.w3.org/1999/xlink"
   version="1.1"
   id="svg2"
   viewBox="0 0 1890 1417"
   height="1417"
   width="1890">

  <path
     id="path3364"
     d="m 1425,1146.3671 c -2.475,-0.2281 -5.4,-0.7848 -6.5,-1.2372 -1.1,-0.4525 -6.8524,-1.9952 -12.7831,-3.4283 -19.2575,-4.6535 -37.5228,-14.7826 -52.6254,-29.1837 -48.5851,-46.3281 -50.636,-122.15769 -4.6094,-170.42644 10.5546,-11.06882 21.4267,-19.04353 34.9661,-25.64791 45.2302,-22.06269 99.0207,-13.70842 135.4603,21.03851 38.4324,36.64712 48.712,92.78654 25.648,140.06974 -15.6516,32.0868 -45.0106,56.1428 -78.2734,64.135 -5.9307,1.425 -11.5313,2.9577 -12.4459,3.4061 -1.9694,0.9654 -22.3934,1.8679 -28.8372,1.2742 z m 33.5,-44.351 c 26.6909,-8.4487 46.264,-28.1504 54.657,-55.0161 2.0048,-6.4174 2.343,-9.593 2.343,-22 0,-12.407 -0.3382,-15.5826 -2.343,-22 -8.4578,-27.07319 -28.0838,-46.69918 -55.157,-55.15697 -6.4174,-2.00482 -9.593,-2.34303 -22,-2.34303 -12.407,0 -15.5826,0.33821 -22,2.34303 -27.0732,8.45779 -46.6992,28.08378 -55.157,55.15697 -2.0048,6.4174 -2.343,9.593 -2.343,22 0,12.407 0.3382,15.5826 2.343,22 9.205,29.4648 32.4069,50.7066 62.2322,56.9745 7.9406,1.6688 29.5361,0.5387 37.4248,-1.9584 z m -32,-25.9671 c -23.886,-5.1539 -36.0273,-21.3967 -35.916,-48.049 0.088,-21.1022 9.0744,-36.78353 25.7963,-45.01571 16.7743,-8.25792 33.9399,-7.93994 49.1197,0.9099 6.5241,3.80356 13.6733,10.01634 12.9231,11.2303 -0.3252,0.52607 -6.7409,6.18361 -14.2571,12.57231 -16.4312,13.9662 -23.166,20.3308 -23.166,21.8923 0,0.6403 8.7628,7.7397 19.4729,15.7764 12.2948,9.2258 19.286,15.0994 18.9658,15.9338 -0.5609,1.4616 -11.2288,8.5652 -15.9387,10.6133 -9.5303,4.1442 -27.6011,6.1644 -37,4.1364 z m -437.63922,0.041 c -2.33383,-1.888 -2.36649,-2.182 -2.86078,-25.75 l -0.5,-23.8401 -124.75004,0 -124.75005,0 -1.1e-4,-5 -1.2e-4,-5 75.68152,0.2686 c 44.2587,0.1571 76.05751,-0.1073 76.58709,-0.6369 1.10605,-1.106 -1.14929,-3.5048 -16.66676,-17.72667 -6.6444,-6.08964 -12.49527,-12.32597 -13.25,-14.12291 C 857.25064,981.66098 857,964.68089 857,892.71921 l 0,-88.34503 2.75,-2.60274 2.75,-2.60275 96.35354,-0.33434 96.35356,-0.33435 1.3964,-2.70034 c 2.0507,-3.96537 1.8004,-5.10732 -2.6183,-11.94379 -13.8165,-21.37686 -10.9555,-47.68117 7.2152,-66.33694 l 6.7996,-6.98107 0,-89.33467 c 0,-59.66831 0.3438,-89.977 1.0352,-91.26893 1.3318,-2.48855 4.5978,-2.48855 5.9296,0 0.6089,1.13773 1.0352,9.72169 1.0352,20.84501 0,17.05044 0.1799,19.07356 1.8287,20.56574 1.0059,0.91025 2.589,1.65499 3.5182,1.65499 2.3808,0 20.9583,-9.45853 22.7062,-11.56063 1.1222,-1.3495 1.5904,-6.81176 2.0863,-24.33968 0.7129,-25.19729 0.675,-24.81448 2.5273,-25.52527 1.7416,-0.66834 3.9154,0.19584 4.3231,1.71861 0.1777,0.66383 0.4822,43.83526 0.6767,95.93649 l 0.3536,94.72953 2.9403,1.52047 c 1.6172,0.83627 3.3271,1.52048 3.7999,1.52048 0.4728,0 2.7451,-2.8472 5.0496,-6.32712 l 4.1901,-6.32711 0,-25.67289 c 0,-24.33955 0.1039,-25.77675 2,-27.67288 1.828,-1.82796 3.3333,-2 17.5,-2 14.1667,0 15.672,0.17204 17.5,2 1.903,1.90303 2,3.33333 2,29.5 0,26.16667 -0.097,27.59697 -2,29.5 -1.8397,1.83967 -3.3333,2 -18.632,2 -15.1038,0 -16.9414,0.19125 -20,2.08156 -4.2736,2.64127 -4.2774,5.19328 -0.011,7.82974 4.1942,2.59215 11.4378,10.31426 14.6226,15.5887 1.3285,2.2 2.8891,4.33127 3.4682,4.73615 0.579,0.40489 5.1138,0.4581 10.0773,0.11825 31.2236,-2.13787 64.8776,10.13764 88.591,32.31414 l 7.8395,7.33146 88.2725,-0.002 88.2724,-0.002 5.885,-3.99761 5.8849,-3.99762 11.3093,0 c 13.9003,0 13.972,0.0506 21.9642,15.5 6.6014,12.76098 8.7716,16.03241 11.7761,17.75203 1.5213,0.87069 10.0891,1.39913 28.3405,1.74797 l 26.1599,0.5 3.7754,3.05788 c 8.3112,6.73181 7.8443,4.27279 8.4047,44.26329 0.5674,40.49101 -0.075,37.30918 9.7331,48.17883 8.254,9.1469 9.6192,11.3913 12.7739,21 1.5349,4.675 3.1737,8.65 3.6418,8.83333 1.8631,0.72963 0.7315,5.70806 -1.6998,7.47809 -2.0456,1.48928 -5.6983,1.97784 -20.5395,2.74721 -12.1803,0.63143 -18.6746,0.60228 -19.9674,-0.0896 -1.0538,-0.56398 -5.5028,-5.21876 -9.8867,-10.34395 -42.0531,-49.16467 -113.8506,-57.50446 -165.5189,-19.22621 -20.3555,15.08027 -33.4454,33.21232 -43.0458,59.62677 -2.3675,6.51394 -5.683,13.84696 -7.3677,16.2956 -11.0976,16.12989 -30.6591,30.47399 -51.8997,38.05719 -4.0022,1.4288 -8.7272,3.3907 -10.5,4.3598 -2.9153,1.5935 -7.8936,1.8096 -52.1052,2.2618 l -48.8819,0.5 -0.1181,24.5 c -0.065,13.475 -0.4822,25.0625 -0.9271,25.75 -0.6357,0.9823 -17.3732,1.25 -78.1392,1.25 -74.62285,0 -77.41288,-0.067 -79.69102,-1.9098 z M 1210.5,1014.1831 c 23.5903,-6.808 45.4507,-21.02708 59.5309,-38.722 6.0661,-7.62325 15.3348,-22.26146 17.7046,-27.9611 16.5976,-39.91809 49.7559,-71.18726 90.5761,-85.41581 17.122,-5.96813 27.0495,-7.49672 48.6884,-7.49672 16.3883,0 21.1258,0.35309 29.6884,2.21265 28.8543,6.26637 53.4953,19.31145 75.1765,39.79888 l 10.3649,9.79419 4.6351,-2.62711 c 6.6873,-3.79029 7.0214,-4.78044 3.2122,-9.52051 -1.7813,-2.21659 -3.7892,-5.63127 -4.4619,-7.58818 -0.9634,-2.80225 -2.4042,-4.17929 -6.7833,-6.48282 -3.0581,-1.60865 -16.0838,-9.57843 -28.946,-17.71063 -12.8623,-8.13221 -25.1859,-15.568 -27.3859,-16.52399 -3.0497,-1.3252 -8.2765,-1.90216 -22,-2.42848 -18.24,-0.69953 -22.5,-1.63422 -22.5,-4.9367 0,-2.72535 6.2012,-3.57477 26.0976,-3.57477 18.4199,0 20.3775,-0.17847 28.1008,-2.56196 11.4154,-3.52291 13.3031,-5.66426 14.083,-15.97504 0.3267,-4.32053 0.3705,-8.21719 0.097,-8.65925 -0.2733,-0.44206 -5.2176,-0.80375 -10.9875,-0.80375 -7.2862,0 -11.3612,-0.45018 -13.3406,-1.47378 -4.4139,-2.28252 -9.055,-8.39283 -14.9511,-19.68418 C 1459.7776,771.8201 1459.9704,772 1452.2682,772 c -5.8946,0 -6.8806,0.32847 -12.0078,4 -3.2781,2.34738 -6.7244,4 -8.3414,4 -6.0725,0 -5.919,-0.53154 -5.919,20.4962 0,17.82864 -0.1508,19.4602 -2,21.64302 l -2,2.36078 -2,-2.36078 c -1.5127,-1.7856 -2,-3.81438 -2,-8.32693 0,-5.26082 -0.3456,-6.3117 -2.9231,-8.88921 l -2.923,-2.92308 -68.6084,0 c -54.3241,0 -68.7091,0.26283 -69.0927,1.26242 -0.8407,2.1908 5.13,17.05796 7.1728,17.86058 1.0309,0.40504 27.2165,0.76806 58.1901,0.80671 36.773,0.0459 56.987,0.42952 58.25,1.10547 2.6339,1.40961 2.4592,5.3929 -0.3157,7.20026 -1.2375,0.80601 -5.85,2.26281 -10.25,3.23733 -21.0068,4.65265 -46.0646,16.29103 -63.888,29.67353 -26.7666,20.09734 -44.8834,44.2819 -59.9535,80.03355 -3.6565,8.6744 -16.3002,23.87406 -26.4771,31.82933 -9.5122,7.43568 -21.0806,13.26716 -32.1955,16.22931 L 1196.5,993.5 l -137,0 -137,0 -4.55734,-2.67925 c -7.78105,-4.57446 -18.65503,-13.61929 -21.06868,-17.52465 l -2.30516,-3.72984 -0.39355,-71.03313 -0.39355,-71.03313 2.18172,-2.75 2.18172,-2.75 71.86232,0 c 39.52432,0 72.91482,-0.40014 74.20112,-0.88921 2.7946,-1.0625 6.461,-10.84406 4.7161,-12.58199 -0.6948,-0.69195 -30.6869,-0.98358 -91.60067,-0.8907 -75.22217,0.11471 -90.71388,0.36886 -91.43054,1.5 -0.47458,0.74905 -0.86976,38.61385 -0.87818,84.14402 -0.0124,67.10265 0.2394,83.39173 1.32949,86.00068 1.41375,3.38357 31.53411,31.8357 37.70714,35.6188 l 3.44806,2.1131 147.5,-0.2615 147.5,-0.2614 8,-2.3087 z m -25,-84.16698 c 26.6909,-8.4487 46.264,-28.1504 54.657,-55.01612 2.0048,-6.4174 2.343,-9.59302 2.343,-22 0,-12.40698 -0.3382,-15.5826 -2.343,-22 -8.4578,-27.07319 -28.0838,-46.69918 -55.157,-55.15697 -6.4174,-2.00482 -9.593,-2.34303 -22,-2.34303 -12.407,0 -15.5826,0.33821 -22,2.34303 -27.0732,8.45779 -46.6992,28.08378 -55.157,55.15697 -2.0048,6.4174 -2.343,9.59302 -2.343,22 0,12.40698 0.3382,15.5826 2.343,22 9.205,29.46485 32.4069,50.70659 62.2322,56.9745 7.9406,1.66876 29.5361,0.53871 37.4248,-1.95838 z m -37,-30.03813 c -6.6337,-1.33152 -14.7262,-4.80516 -19.6674,-8.44213 -21.2078,-15.60985 -22.1038,-58.62043 -1.6051,-77.05049 16.6053,-14.92958 41.3319,-17.63359 60.2725,-6.59118 6.5241,3.80356 13.6733,10.01634 12.9231,11.2303 -0.3252,0.52607 -6.7409,6.18363 -14.2571,12.57235 -16.4312,13.96621 -23.166,20.33073 -23.166,21.89222 0,0.64033 8.7628,7.73973 19.4729,15.77644 12.2948,9.22584 19.286,15.09936 18.9658,15.93377 -0.6896,1.79699 -11.7939,8.87789 -17.9387,11.43897 -9.4091,3.92161 -24.5983,5.32759 -35,3.23975 z m 396.2566,-52.49132 c 0.2299,-25.97375 0.074,-29.35047 -1.5,-32.48667 -2.6192,-5.2188 -8.8375,-8 -17.8867,-8 -10.9629,0 -10.3709,-0.82008 -10.3633,14.35699 0,7.22865 -0.5179,16.5895 -1.1591,20.80188 -0.9257,6.08244 -0.9013,8.29706 0.1187,10.75944 1.4963,3.6124 26.6593,24.26546 29.0338,23.83007 1.2854,-0.23571 1.5367,-4.42115 1.7566,-29.26171 z M 951,854 l 0.5,-4.5 13,-0.5 13,-0.5 0,-8 0,-8 -12.78621,-0.28015 c -12.5639,-0.27527 -12.80254,-0.32309 -13.72525,-2.75 C 950.10441,827.14441 949.6081,827 942.5,827 c -7.11187,0 -7.60404,0.14344 -8.49028,2.47443 -0.93955,2.4712 -0.96141,2.47479 -16.72525,2.75 L 901.5,832.5 l 0,8 0,8 16,0.5 16,0.5 0.28854,3.5 c 0.50367,6.10957 0.50455,6.11015 8.94632,5.79234 L 950.5,858.5 951,854 Z m 464.0769,-62.92308 c 3.346,-3.34602 4.122,-9.40289 1.3413,-10.46993 -0.87,-0.33385 -35.7591,-0.60699 -77.5314,-0.60699 -84.3822,0 -79.1312,-0.47195 -74.8191,6.72462 4.815,8.03598 -3.1998,7.27538 76.6642,7.27538 l 71.422,0 2.923,-2.92308 z M 1066.385,780.53518 c 1.3879,-2.1182 1.615,-6.33691 1.615,-30 C 1068,724.06277 1067.926,723 1066.0827,723 c -2.6996,0 -9.5961,10.68469 -12.0734,18.7054 -3.6971,11.9697 -2.043,25.73597 4.4169,36.7588 3.0217,5.15629 5.5125,5.80443 7.9588,2.07098 z m 17.8598,-19.06539 c 2.7713,-2.49162 8.7999,-7.00717 13.397,-10.03455 l 8.3582,-5.50433 0,-17.26546 c 0,-12.09535 -0.3593,-17.62479 -1.2,-18.46545 -2.7859,-2.78594 -20.394,-0.52555 -26.55,3.40829 -2.2368,1.4294 -2.25,1.58691 -2.25,26.91476 0,29.2048 -0.2457,28.58049 8.2448,20.94674 z m 43.7406,-23.94778 c 4.6669,-1.42599 8.9103,-3.01771 9.4298,-3.53716 3.333,-3.33305 -17.0431,-22.49281 -21.9275,-20.61849 -1.2102,0.4644 -1.4877,2.9702 -1.4877,13.43559 0,7.07559 0.332,13.19672 0.7378,13.6025 0.8409,0.84095 1.6078,0.67408 13.2476,-2.88244 z M 1083.5,704.42324 c 2.75,-0.85531 8.825,-1.86294 13.5,-2.23918 l 8.5,-0.68406 0.2576,-62.41283 c 0.2354,-57.01069 0.1137,-62.57184 -1.405,-64.25 -0.9144,-1.01044 -2.4611,-1.83717 -3.437,-1.83717 -3.3593,0 -20.5118,8.67114 -22.7294,11.49046 l -2.1862,2.77926 0,58.69847 c 0,32.28416 0.3,58.99848 0.6667,59.36514 0.8994,0.89945 1.102,0.87247 6.8333,-0.91009 z"
     style="fill:#000000" />
</svg>
