<?xml version="1.0" encoding="UTF-8" standalone="no"?>
<svg
   xmlns:dc="http://purl.org/dc/elements/1.1/"
   xmlns:cc="http://creativecommons.org/ns#"
   xmlns:rdf="http://www.w3.org/1999/02/22-rdf-syntax-ns#"
   xmlns:svg="http://www.w3.org/2000/svg"
   xmlns="http://www.w3.org/2000/svg"
   xmlns:xlink="http://www.w3.org/1999/xlink"
   width="1890"
   height="1417"
   viewBox="0 0 1890 1417"
   id="svg3411"
   version="1.1">

  <path
     id="path3336"
     d="m 453,695.8752 c -67.375,-42.33737 -122.82711,-77.30373 -123.22692,-77.70303 -0.3998,-0.3993 -0.0711,-6.56389 0.7305,-13.69909 0.80157,-7.13519 1.46618,-13.34393 1.47691,-13.79719 0.0107,-0.45326 14.09308,-15.30326 31.29411,-33 17.20103,-17.69674 64.28537,-66.52246 104.63187,-108.50159 l 73.35728,-76.3257 4.61812,0.59041 c 2.53997,0.32473 16.76813,1.78078 31.61813,3.23568 30.53704,2.99181 63.57545,3.56589 86.05191,1.49526 11.41419,-1.05153 15.86864,-0.95528 35.5,0.76708 49.8869,4.37684 84.45249,4.98432 115.54829,2.03075 l 11.10021,-1.05433 9.34658,4.05383 c 5.14062,2.22961 10.27053,4.8981 11.3998,5.92997 2.82908,2.5851 62.37635,32.85739 76.76965,39.02771 26.52116,11.36945 41.14741,15.29621 87.78356,23.56755 38.9355,6.90556 52.5642,9.61554 70.6543,14.04914 44.2391,10.84233 67.3476,24.8024 62.4368,37.71876 -1.0192,2.6806 -1.2198,2.73974 -9.3163,2.74669 -42.8487,0.0368 -435.17376,4.12144 -435.84742,4.53778 -0.48778,0.30146 -18.92182,22.37385 -40.96453,49.04975 l -40.07767,48.50163 2.07122,57.63181 2.07121,57.63181 -2.36854,3.57006 c -5.51735,8.31621 -41.11414,45.21978 -43.40282,44.99617 C 575.84031,772.88547 520.375,738.21256 453,695.8752 Z"
     style="fill:#000000" />
</svg>
